<svg width="64" height="64" viewBox="0 0 64 64" fill="none" xmlns="http://www.w3.org/2000/svg">
<path d="M51.8 39.8667H54.8667V19.3334C54.8667 18.7112 54.7222 18.1112 54.4333 17.5334C54.1444 16.9556 53.7555 16.5112 53.2667 16.2001L39.6 6.46673C38.8889 5.97784 38.1333 5.7334 37.3333 5.7334C36.5333 5.7334 35.7778 5.97784 35.0667 6.46673L21.4 16.2001C20.9111 16.5112 20.5222 16.9556 20.2333 17.5334C19.9444 18.1112 19.8 18.7112 19.8 19.3334V27.8001H22.8666V19.2667C22.8666 19.1334 22.8889 19.0001 22.9333 18.8667C22.9778 18.7334 23.0667 18.6223 23.2 18.5334L36.8667 9.00006C37 8.91118 37.1555 8.86673 37.3333 8.86673C37.5111 8.86673 37.6667 8.91118 37.8 9.00006L51.4667 18.5334C51.6 18.6223 51.6889 18.7334 51.7333 18.8667C51.7778 19.0001 51.8 19.1334 51.8 19.2667V39.8667ZM40 22.2001C39.6889 22.2001 39.4111 22.0778 39.1667 21.8334C38.9222 21.589 38.8 21.3112 38.8 21.0001C38.8 20.6445 38.9222 20.3556 39.1667 20.1334C39.4111 19.9112 39.6889 19.8001 40 19.8001C40.3111 19.8001 40.5889 19.9112 40.8333 20.1334C41.0778 20.3556 41.2 20.6445 41.2 21.0001C41.2 21.3112 41.0778 21.589 40.8333 21.8334C40.5889 22.0778 40.3111 22.2001 40 22.2001ZM34.6667 22.2001C34.3555 22.2001 34.0778 22.0778 33.8333 21.8334C33.5889 21.589 33.4667 21.3112 33.4667 21.0001C33.4667 20.6445 33.5889 20.3556 33.8333 20.1334C34.0778 19.9112 34.3555 19.8001 34.6667 19.8001C34.9778 19.8001 35.2555 19.9112 35.5 20.1334C35.7444 20.3556 35.8667 20.6445 35.8667 21.0001C35.8667 21.3112 35.7444 21.589 35.5 21.8334C35.2555 22.0778 34.9778 22.2001 34.6667 22.2001ZM40 27.5334C39.6889 27.5334 39.4111 27.4112 39.1667 27.1667C38.9222 26.9223 38.8 26.6445 38.8 26.3334C38.8 25.9778 38.9222 25.689 39.1667 25.4667C39.4111 25.2445 39.6889 25.1334 40 25.1334C40.3111 25.1334 40.5889 25.2445 40.8333 25.4667C41.0778 25.689 41.2 25.9778 41.2 26.3334C41.2 26.6445 41.0778 26.9223 40.8333 27.1667C40.5889 27.4112 40.3111 27.5334 40 27.5334ZM34.6667 27.5334C34.3555 27.5334 34.0778 27.4112 33.8333 27.1667C33.5889 26.9223 33.4667 26.6445 33.4667 26.3334C33.4667 25.9778 33.5889 25.689 33.8333 25.4667C34.0778 25.2445 34.3555 25.1334 34.6667 25.1334C34.9778 25.1334 35.2555 25.2445 35.5 25.4667C35.7444 25.689 35.8667 25.9778 35.8667 26.3334C35.8667 26.6445 35.7444 26.9223 35.5 27.1667C35.2555 27.4112 34.9778 27.5334 34.6667 27.5334ZM36.6667 55.2667C36.7555 55.3112 36.8444 55.3334 36.9333 55.3334C37.0222 55.3334 37.0889 55.3112 37.1333 55.2667L53.3333 50.2667C53.1555 49.689 52.8555 49.1334 52.4333 48.6001C52.0111 48.0667 51.5555 47.8001 51.0667 47.8001H36.2C35.8889 47.8001 35.3222 47.7667 34.5 47.7001C33.6778 47.6334 32.8667 47.4445 32.0667 47.1334L27.4667 45.6667C27.0667 45.5334 26.7555 45.2667 26.5333 44.8667C26.3111 44.4667 26.2667 44.0445 26.4 43.6001C26.5778 43.2001 26.8555 42.9112 27.2333 42.7334C27.6111 42.5556 28.0222 42.5556 28.4667 42.7334L34.4 44.7334C34.5778 44.8223 35.0889 44.8556 35.9333 44.8334C36.7778 44.8112 37.8889 44.8001 39.2667 44.8001H39.8667C39.8667 44.089 39.7555 43.4778 39.5333 42.9667C39.3111 42.4556 38.9333 42.089 38.4 41.8667L22.4 35.8001H16.2V49.2001L36.6667 55.2667ZM36.0667 58.2001L16.2 52.4001C16.0667 53.5556 15.5778 54.4556 14.7333 55.1001C13.8889 55.7445 13.0889 56.0667 12.3333 56.0667H7.86665C6.84443 56.0667 5.95554 55.6778 5.19998 54.9001C4.44443 54.1223 4.06665 53.2223 4.06665 52.2001V36.6001C4.06665 35.5334 4.44443 34.6223 5.19998 33.8667C5.95554 33.1112 6.84443 32.7334 7.86665 32.7334H22C22.2222 32.7334 22.4444 32.7556 22.6667 32.8001C22.8889 32.8445 23.1111 32.9112 23.3333 33.0001L39.4 39.0001C40.4222 39.3556 41.2889 39.9778 42 40.8667C42.7111 41.7556 43.0667 43.0667 43.0667 44.8001H51.4667C53.1111 44.8001 54.4222 45.3667 55.4 46.5001C56.3778 47.6334 56.8667 49.1556 56.8667 51.0667C56.8667 51.4667 56.7667 51.8223 56.5667 52.1334C56.3667 52.4445 56.0889 52.689 55.7333 52.8667L38.2667 58.2001C37.9111 58.289 37.5444 58.3334 37.1667 58.3334C36.7889 58.3334 36.4222 58.289 36.0667 58.2001ZM7.06665 52.2001C7.06665 52.4223 7.14443 52.6112 7.29998 52.7667C7.45554 52.9223 7.64443 53.0001 7.86665 53.0001H12.2667C12.4889 53.0001 12.6778 52.9334 12.8333 52.8001C12.9889 52.6667 13.0667 52.4667 13.0667 52.2001V35.8001H7.86665C7.64443 35.8001 7.45554 35.8778 7.29998 36.0334C7.14443 36.189 7.06665 36.3778 7.06665 36.6001V52.2001Z" fill="#3A5295"/>
</svg>
