<svg width="86" height="94" viewBox="0 0 86 94" fill="none" xmlns="http://www.w3.org/2000/svg">
<path d="M11.375 93.9851C8.29167 93.9851 5.66667 92.9086 3.5 90.7557C1.33333 88.6027 0.25 85.9944 0.25 82.9306V73.615C0.25 72.6213 0.583334 71.7726 1.25 71.0688C1.91667 70.3649 2.79167 70.013 3.875 70.013H15.875V3.81027C15.875 2.89941 16.2292 2.40258 16.9375 2.31978C17.6458 2.23697 18.3333 2.48539 19 3.06503L22.75 6.79126L28.5 1.32612C28.8333 0.912091 29.2708 0.705078 29.8125 0.705078C30.3542 0.705078 30.7917 0.912091 31.125 1.32612L36.75 6.79126L42.5 1.32612C42.8333 0.912091 43.25 0.705078 43.75 0.705078C44.25 0.705078 44.7083 0.912091 45.125 1.32612L50.75 6.79126L56.5 1.32612C56.8333 0.912091 57.2708 0.705078 57.8125 0.705078C58.3542 0.705078 58.7917 0.912091 59.125 1.32612L64.875 6.79126L70.5 1.32612C70.8333 0.912091 71.2708 0.705078 71.8125 0.705078C72.3542 0.705078 72.7917 0.912091 73.125 1.32612L78.875 6.79126L82.625 3.06503C83.2917 2.40258 83.9792 2.15417 84.6875 2.31978C85.3958 2.48539 85.75 2.98222 85.75 3.81027V82.9306C85.75 85.9944 84.6667 88.6027 82.5 90.7557C80.3333 92.9086 77.7083 93.9851 74.625 93.9851H11.375ZM74.625 88.3957C76.2083 88.3957 77.5208 87.8782 78.5625 86.8431C79.6042 85.8081 80.125 84.5039 80.125 82.9306V10.1449H21.5V70.013H65.625C66.625 70.013 67.4792 70.3649 68.1875 71.0688C68.8958 71.7726 69.25 72.6213 69.25 73.615V82.9306C69.25 84.5039 69.75 85.8081 70.75 86.8431C71.75 87.8782 73.0417 88.3957 74.625 88.3957ZM31.375 28.6518C30.625 28.6518 29.9792 28.362 29.4375 27.7824C28.8958 27.2027 28.625 26.5403 28.625 25.795C28.625 24.967 28.9167 24.2838 29.5 23.7456C30.0833 23.2074 30.75 22.9383 31.5 22.9383H54.25C55 22.9383 55.6458 23.2281 56.1875 23.8077C56.7292 24.3874 57 25.0498 57 25.795C57 26.6231 56.7292 27.3062 56.1875 27.8445C55.6458 28.3827 55 28.6518 54.25 28.6518H31.375ZM31.375 44.7988C30.625 44.7988 29.9792 44.509 29.4375 43.9294C28.8958 43.3497 28.625 42.6873 28.625 41.942C28.625 41.1968 28.9167 40.5551 29.5 40.0168C30.0833 39.4786 30.75 39.2095 31.5 39.2095H54.25C55 39.2095 55.6458 39.4786 56.1875 40.0168C56.7292 40.5551 57 41.2382 57 42.0663C57 42.8943 56.7292 43.5567 56.1875 44.0536C55.6458 44.5504 55 44.7988 54.25 44.7988H31.375ZM68.625 29.2729C67.7083 29.2729 66.8958 28.9209 66.1875 28.2171C65.4792 27.5132 65.125 26.7059 65.125 25.795C65.125 24.8842 65.4792 24.0768 66.1875 23.373C66.8958 22.6691 67.7083 22.3172 68.625 22.3172C69.5417 22.3172 70.3542 22.6691 71.0625 23.373C71.7708 24.0768 72.125 24.8842 72.125 25.795C72.125 26.7059 71.7708 27.5132 71.0625 28.2171C70.3542 28.9209 69.5417 29.2729 68.625 29.2729ZM68.625 45.0472C67.7083 45.0472 66.8958 44.6953 66.1875 43.9915C65.4792 43.2876 65.125 42.4803 65.125 41.5694C65.125 40.6586 65.4792 39.8512 66.1875 39.1474C66.8958 38.4435 67.7083 38.0916 68.625 38.0916C69.5417 38.0916 70.3542 38.4435 71.0625 39.1474C71.7708 39.8512 72.125 40.6586 72.125 41.5694C72.125 42.4803 71.7708 43.2876 71.0625 43.9915C70.3542 44.6953 69.5417 45.0472 68.625 45.0472ZM11.25 88.3957H63.5V75.7265H5.875V82.9306C5.875 84.5039 6.39583 85.8081 7.4375 86.8431C8.47917 87.8782 9.75 88.3957 11.25 88.3957ZM5.875 88.3957V75.7265V88.3957Z" fill="#3A5295"/>
</svg>
