<svg width="97" height="74" viewBox="0 0 97 74" fill="none" xmlns="http://www.w3.org/2000/svg">
<path d="M71.625 21.3229L91.5 1.56481C92.0833 0.981238 92.75 0.689453 93.5 0.689453C94.25 0.689453 94.9167 0.981238 95.5 1.56481C96.0833 2.14838 96.375 2.81532 96.375 3.56563C96.375 4.31594 96.0833 4.98288 95.5 5.56645L74.25 26.8252C73.5833 27.5755 72.75 27.9506 71.75 27.9506C70.75 27.9506 69.9167 27.5755 69.25 26.8252L58.25 15.9457C57.75 15.3621 57.5 14.6952 57.5 13.9449C57.5 13.1946 57.75 12.5276 58.25 11.9441C58.8333 11.4439 59.5 11.1938 60.25 11.1938C61 11.1938 61.6667 11.4439 62.25 11.9441L71.625 21.3229ZM3.125 20.3225C2.29167 20.3225 1.60417 20.0515 1.0625 19.5097C0.520833 18.9678 0.25 18.28 0.25 17.4463C0.25 16.6126 0.520833 15.9249 1.0625 15.383C1.60417 14.8411 2.29167 14.5701 3.125 14.5701H39.875C40.7083 14.5701 41.3958 14.8411 41.9375 15.383C42.4792 15.9249 42.75 16.6126 42.75 17.4463C42.75 18.28 42.4792 18.9678 41.9375 19.5097C41.3958 20.0515 40.7083 20.3225 39.875 20.3225H3.125ZM74 61.4643L62.25 73.0941C61.6667 73.5943 61 73.8652 60.25 73.9069C59.5 73.9486 58.8333 73.6777 58.25 73.0941C57.75 72.5105 57.5 71.8436 57.5 71.0933C57.5 70.343 57.75 69.676 58.25 69.0925L70 57.4627L58.25 45.8329C57.75 45.2494 57.5 44.5824 57.5 43.8321C57.5 43.0818 57.75 42.4149 58.25 41.8313C58.8333 41.2477 59.5 40.9768 60.25 41.0185C61 41.0602 61.6667 41.3311 62.25 41.8313L74 53.4611L85.625 41.8313C86.2083 41.2477 86.875 40.9559 87.625 40.9559C88.375 40.9559 89.0417 41.2477 89.625 41.8313C90.2083 42.4149 90.5 43.0818 90.5 43.8321C90.5 44.5824 90.2083 45.2494 89.625 45.8329L78 57.4627L89.625 69.0925C90.2083 69.676 90.5 70.343 90.5 71.0933C90.5 71.8436 90.2083 72.5105 89.625 73.0941C89.0417 73.6777 88.375 73.9695 87.625 73.9695C86.875 73.9695 86.2083 73.6777 85.625 73.0941L74 61.4643ZM3.125 60.3389C2.29167 60.3389 1.60417 60.0679 1.0625 59.526C0.520833 58.9842 0.25 58.2964 0.25 57.4627C0.25 56.629 0.520833 55.9412 1.0625 55.3994C1.60417 54.8575 2.29167 54.5865 3.125 54.5865H39.875C40.7083 54.5865 41.3958 54.8575 41.9375 55.3994C42.4792 55.9412 42.75 56.629 42.75 57.4627C42.75 58.2964 42.4792 58.9842 41.9375 59.526C41.3958 60.0679 40.7083 60.3389 39.875 60.3389H3.125Z" fill="#3A5295"/>
</svg>
