<svg width="33" height="41" viewBox="0 0 33 41" fill="none" xmlns="http://www.w3.org/2000/svg">
<path fill-rule="evenodd" clip-rule="evenodd" d="M16.1143 1.67969C8.38352 1.67969 2.11432 7.98261 2.11432 15.755C2.11432 22.8658 7.36292 28.7282 14.1739 29.6797V19.7284H10.8909V15.9042H14.1739V13.0849C14.1739 9.8124 16.1605 8.03046 19.0641 8.03046C20.4571 8.03046 21.6513 8.13462 21.9985 8.17966V11.6L19.9853 11.6014C18.4061 11.6014 18.1023 12.3558 18.1023 13.4621V15.9028H21.8683L21.3755 19.727H18.1009V29.6726C24.8895 28.7 30.1143 22.8489 30.1143 15.755C30.1143 7.98261 23.8451 1.67969 16.1143 1.67969Z" fill="white"/>
</svg>
