<svg width="64" height="64" viewBox="0 0 64 64" fill="none" xmlns="http://www.w3.org/2000/svg">
<path d="M29.4 51.9332L26.3334 49.0666C21 44.1777 16.3889 39.511 12.5 35.0666C8.61113 30.6221 6.66669 26.0221 6.66669 21.2666C6.66669 17.6221 7.90002 14.5666 10.3667 12.0999C12.8334 9.63324 15.8889 8.3999 19.5334 8.3999C21.5778 8.3999 23.7 8.92212 25.9 9.96657C28.1 11.011 30.1334 12.9332 32 15.7332C34 12.9332 36.0556 11.011 38.1667 9.96657C40.2778 8.92212 42.3778 8.3999 44.4667 8.3999C48.1111 8.3999 51.1667 9.63324 53.6334 12.0999C56.1 14.5666 57.3334 17.6221 57.3334 21.2666C57.3334 26.0666 55.3445 30.6999 51.3667 35.1666C47.3889 39.6332 42.8222 44.2666 37.6667 49.0666L34.6 51.8666C33.8445 52.5332 32.9778 52.8666 32 52.8666C31.0222 52.8666 30.1556 52.5555 29.4 51.9332ZM30.6667 19.1332C29.2889 16.6443 27.6222 14.7332 25.6667 13.3999C23.7111 12.0666 21.6667 11.3999 19.5334 11.3999C16.6445 11.3999 14.2778 12.3332 12.4334 14.1999C10.5889 16.0666 9.66669 18.4221 9.66669 21.2666C9.66669 23.6221 10.3889 26.0443 11.8334 28.5332C13.2778 31.0221 15.0889 33.4999 17.2667 35.9666C19.4445 38.4332 21.8 40.8332 24.3334 43.1666C26.8667 45.4999 29.2445 47.6666 31.4667 49.6666C31.6 49.7999 31.7778 49.8666 32 49.8666C32.2222 49.8666 32.4 49.7999 32.5334 49.6666C34.7556 47.711 37.1334 45.5555 39.6667 43.1999C42.2 40.8444 44.5556 38.4332 46.7334 35.9666C48.9111 33.4999 50.7222 31.011 52.1667 28.4999C53.6111 25.9888 54.3334 23.5777 54.3334 21.2666C54.3334 18.4221 53.4 16.0666 51.5334 14.1999C49.6667 12.3332 47.3111 11.3999 44.4667 11.3999C42.2889 11.3999 40.2334 12.0555 38.3 13.3666C36.3667 14.6777 34.6889 16.5999 33.2667 19.1332C33.0889 19.3999 32.8889 19.5999 32.6667 19.7332C32.4445 19.8666 32.2 19.9332 31.9334 19.9332C31.6667 19.9332 31.4222 19.8666 31.2 19.7332C30.9778 19.5999 30.8 19.3999 30.6667 19.1332Z" fill="#3A5295"/>
</svg>
