<svg width="32" height="41" viewBox="0 0 32 41" fill="none" xmlns="http://www.w3.org/2000/svg">
<path d="M15.9962 11.8509C13.4255 11.8509 11.3277 13.9488 11.3277 16.5195C11.3277 19.0903 13.4255 21.1882 15.9962 21.1882C18.5669 21.1882 20.6648 19.0903 20.6648 16.5195C20.6648 13.9488 18.5669 11.8509 15.9962 11.8509ZM29.9984 16.5195C29.9984 14.5862 30.0159 12.6704 29.9074 10.7406C29.7988 8.49911 29.2875 6.50977 27.6484 4.87066C26.0058 3.22805 24.02 2.72021 21.7785 2.61163C19.8453 2.50306 17.9295 2.52057 15.9997 2.52057C14.0665 2.52057 12.1507 2.50306 10.2209 2.61163C7.97947 2.72021 5.99016 3.23155 4.35109 4.87066C2.70851 6.51327 2.20067 8.49911 2.0921 10.7406C1.98353 12.6739 2.00104 14.5897 2.00104 16.5195C2.00104 18.4493 1.98353 20.3686 2.0921 22.2984C2.20067 24.5399 2.71201 26.5293 4.35109 28.1684C5.99367 29.811 7.97947 30.3189 10.2209 30.4274C12.1542 30.536 14.07 30.5185 15.9997 30.5185C17.933 30.5185 19.8488 30.536 21.7785 30.4274C24.02 30.3189 26.0093 29.8075 27.6484 28.1684C29.291 26.5258 29.7988 24.5399 29.9074 22.2984C30.0195 20.3686 29.9984 18.4528 29.9984 16.5195ZM15.9962 23.7029C12.0211 23.7029 8.81302 20.4947 8.81302 16.5195C8.81302 12.5443 12.0211 9.33618 15.9962 9.33618C19.9713 9.33618 23.1795 12.5443 23.1795 16.5195C23.1795 20.4947 19.9713 23.7029 15.9962 23.7029ZM23.4736 10.7196C22.5455 10.7196 21.796 9.97011 21.796 9.04198C21.796 8.11385 22.5455 7.36435 23.4736 7.36435C24.4018 7.36435 25.1513 8.11385 25.1513 9.04198C25.1515 9.26237 25.1083 9.48064 25.0241 9.68431C24.9399 9.88797 24.8163 10.073 24.6605 10.2289C24.5047 10.3847 24.3196 10.5083 24.116 10.5925C23.9123 10.6767 23.694 10.7199 23.4736 10.7196Z" fill="white"/>
</svg>
