<svg width="97" height="96" viewBox="0 0 97 96" fill="none" xmlns="http://www.w3.org/2000/svg">
<path d="M45.6667 95.3566C39.3334 95.1066 33.3959 93.6898 27.8542 91.1063C22.3126 88.5229 17.5001 85.106 13.4167 80.8558C9.33341 76.6056 6.10425 71.6678 3.72925 66.0425C1.35425 60.4172 0.166748 54.3961 0.166748 47.9791C0.166748 41.3954 1.41675 35.2284 3.91675 29.4781C6.41675 23.7278 9.81258 18.7067 14.1042 14.4148C18.3959 10.1229 23.4167 6.72689 29.1667 4.22676C34.9167 1.72663 41.0834 0.476562 47.6667 0.476562C59.7501 0.476562 70.2084 4.3726 79.0417 12.1647C87.8751 19.9568 93.0834 29.6864 94.6667 41.3537H88.9167C87.8334 34.02 85.0417 27.4572 80.5417 21.6652C76.0417 15.8732 70.2917 11.5605 63.2917 8.727V11.1021C63.2917 13.9356 62.2917 16.4149 60.2917 18.54C58.2917 20.6651 55.8751 21.7277 53.0417 21.7277H42.4167V32.3532C42.4167 33.77 41.8751 34.9367 40.7917 35.8534C39.7084 36.7701 38.4584 37.2285 37.0417 37.2285H26.7917V47.9791H39.1667V63.3549H32.0417L6.91675 38.3536C6.58341 39.937 6.31258 41.5204 6.10425 43.1038C5.89591 44.6872 5.79175 46.3123 5.79175 47.9791C5.79175 59.1463 9.60425 68.7718 17.2292 76.8556C24.8542 84.9393 34.3334 89.2312 45.6667 89.7313V95.3566ZM91.5417 90.8563L76.2917 75.8555C74.7084 77.0223 72.9584 77.939 71.0417 78.6057C69.1251 79.2724 67.1667 79.6057 65.1667 79.6057C59.8334 79.6057 55.3126 77.7515 51.6042 74.0429C47.8959 70.3344 46.0417 65.8133 46.0417 60.4797C46.0417 55.1461 47.8959 50.625 51.6042 46.9165C55.3126 43.208 59.8334 41.3537 65.1667 41.3537C70.5001 41.3537 75.0209 43.208 78.7292 46.9165C82.4376 50.625 84.2917 55.1461 84.2917 60.4797C84.2917 62.4798 83.9376 64.4591 83.2292 66.4175C82.5209 68.376 81.5834 70.1886 80.4167 71.8553L95.5417 86.8561C96.1251 87.4395 96.4376 88.1062 96.4792 88.8562C96.5209 89.6063 96.2501 90.3146 95.6667 90.9813C95.0834 91.4814 94.3959 91.7314 93.6042 91.7314C92.8126 91.7314 92.1251 91.4397 91.5417 90.8563ZM65.1667 73.8554C68.9167 73.8554 72.0834 72.5637 74.6667 69.9802C77.2501 67.3968 78.5417 64.2299 78.5417 60.4797C78.5417 56.7295 77.2501 53.5627 74.6667 50.9792C72.0834 48.3958 68.9167 47.104 65.1667 47.104C61.4167 47.104 58.2501 48.3958 55.6667 50.9792C53.0834 53.5627 51.7917 56.7295 51.7917 60.4797C51.7917 64.2299 53.0834 67.3968 55.6667 69.9802C58.2501 72.5637 61.4167 73.8554 65.1667 73.8554Z" fill="#3A5295"/>
</svg>
