<svg width="121" height="167" viewBox="0 0 121 167" fill="none" xmlns="http://www.w3.org/2000/svg">
<path d="M58.6667 112.357C52.3334 112.107 46.3959 110.69 40.8542 108.106C35.3126 105.523 30.5001 102.106 26.4167 97.8558C22.3334 93.6056 19.1042 88.6678 16.7292 83.0425C14.3542 77.4172 13.1667 71.3961 13.1667 64.9791C13.1667 58.3954 14.4167 52.2284 16.9167 46.4781C19.4167 40.7278 22.8126 35.7067 27.1042 31.4148C31.3959 27.1229 36.4167 23.7269 42.1667 21.2268C47.9167 18.7266 54.0834 17.4766 60.6667 17.4766C72.7501 17.4766 83.2084 21.3726 92.0417 29.1647C100.875 36.9568 106.083 46.6864 107.667 58.3537H101.917C100.833 51.02 98.0417 44.4572 93.5417 38.6652C89.0417 32.8732 83.2917 28.5605 76.2917 25.727V28.1021C76.2917 30.9356 75.2917 33.4149 73.2917 35.54C71.2917 37.6651 68.8751 38.7277 66.0417 38.7277H55.4167V49.3532C55.4167 50.77 54.8751 51.9367 53.7917 52.8534C52.7084 53.7701 51.4584 54.2285 50.0417 54.2285H39.7917V64.9791H52.1667V80.3549H45.0417L19.9167 55.3536C19.5834 56.937 19.3126 58.5204 19.1042 60.1038C18.8959 61.6872 18.7917 63.3123 18.7917 64.9791C18.7917 76.1463 22.6042 85.7718 30.2292 93.8556C37.8542 101.939 47.3334 106.231 58.6667 106.731V112.357ZM104.542 107.856L89.2917 92.8555C87.7084 94.0223 85.9584 94.939 84.0417 95.6057C82.1251 96.2724 80.1667 96.6057 78.1667 96.6057C72.8334 96.6057 68.3126 94.7515 64.6042 91.0429C60.8959 87.3344 59.0417 82.8133 59.0417 77.4797C59.0417 72.1461 60.8959 67.625 64.6042 63.9165C68.3126 60.208 72.8334 58.3537 78.1667 58.3537C83.5001 58.3537 88.0209 60.208 91.7292 63.9165C95.4376 67.625 97.2917 72.1461 97.2917 77.4797C97.2917 79.4798 96.9376 81.4591 96.2292 83.4175C95.5209 85.376 94.5834 87.1886 93.4167 88.8553L108.542 103.856C109.125 104.439 109.438 105.106 109.479 105.856C109.521 106.606 109.25 107.315 108.667 107.981C108.083 108.481 107.396 108.731 106.604 108.731C105.813 108.731 105.125 108.44 104.542 107.856ZM78.1667 90.8554C81.9167 90.8554 85.0834 89.5637 87.6667 86.9802C90.2501 84.3968 91.5417 81.2299 91.5417 77.4797C91.5417 73.7295 90.2501 70.5627 87.6667 67.9792C85.0834 65.3958 81.9167 64.104 78.1667 64.104C74.4167 64.104 71.2501 65.3958 68.6667 67.9792C66.0834 70.5627 64.7917 73.7295 64.7917 77.4797C64.7917 81.2299 66.0834 84.3968 68.6667 86.9802C71.2501 89.5637 74.4167 90.8554 78.1667 90.8554Z" fill="#3A5295"/>
</svg>
