<svg width="32" height="41" viewBox="0 0 32 41" fill="none" xmlns="http://www.w3.org/2000/svg">
<path fill-rule="evenodd" clip-rule="evenodd" d="M23.0711 12.7595C23.0795 12.9135 23.0795 13.0759 23.0795 13.2383C23.0795 18.1425 19.3443 23.8027 12.5151 23.8027C10.4207 23.8027 8.46351 23.1853 6.83951 22.1227C7.13211 22.1619 7.42471 22.1773 7.72431 22.1773C9.46451 22.1773 11.0675 21.5851 12.3373 20.5911C10.7133 20.5603 9.34131 19.4907 8.87231 18.0109C9.10331 18.0571 9.33431 18.0809 9.57231 18.0809C9.91251 18.0809 10.2429 18.0347 10.5523 17.9493C8.84991 17.6035 7.57171 16.1097 7.57171 14.3079V14.2617C8.07151 14.5389 8.64131 14.7083 9.25031 14.7237C8.24931 14.0615 7.59411 12.9219 7.59411 11.6353C7.59411 10.9591 7.77891 10.3193 8.09531 9.7719C9.92651 12.0217 12.6607 13.4987 15.7491 13.6541C15.6791 13.3839 15.6483 13.0983 15.6483 12.8057C15.6483 10.7575 17.3115 9.0957 19.3597 9.0957C20.4293 9.0957 21.3925 9.5409 22.0701 10.2661C22.9171 10.0967 23.7095 9.7887 24.4263 9.3645C24.1505 10.2339 23.5653 10.9591 22.7939 11.4211C23.5485 11.3287 24.2653 11.1285 24.9261 10.8345C24.4263 11.5821 23.7949 12.2359 23.0711 12.7595ZM15.3333 1.67969C7.59971 1.67969 1.33331 7.94749 1.33331 15.6797C1.33331 23.4105 7.59971 29.6797 15.3333 29.6797C23.0641 29.6797 29.3333 23.4105 29.3333 15.6797C29.3333 7.94749 23.0641 1.67969 15.3333 1.67969Z" fill="white"/>
</svg>
