<svg width="127" height="48" viewBox="0 0 127 48" fill="none" xmlns="http://www.w3.org/2000/svg">
<path d="M66.3887 32.3261C66.3887 34.5744 65.8692 36.2487 64.8302 37.3491C63.7911 38.4416 62.3559 38.9879 60.5245 38.9879C58.7006 38.9879 57.2692 38.4416 56.2301 37.3491C55.1986 36.2487 54.6828 34.5744 54.6828 32.3261C54.6828 31.9936 54.6828 31.6413 54.6828 31.2692C54.6828 30.8892 54.6828 30.4934 54.6828 30.0817V21.2231H57.1159V30.3667C57.1159 30.7467 57.1159 31.099 57.1159 31.4236C57.1159 31.7482 57.1159 32.045 57.1159 32.3142C57.1159 33.8975 57.4 35.0415 57.9681 35.746C58.5362 36.4427 59.3883 36.791 60.5245 36.791C61.6682 36.791 62.5241 36.4427 63.0922 35.746C63.6678 35.0415 63.9556 33.8975 63.9556 32.3142V21.2231H66.3887V32.3261Z" fill="white"/>
<path d="M77.9764 38.7385V32.9198C77.9764 32.5794 77.9764 32.2905 77.9764 32.053C77.9764 31.8155 77.9764 31.5938 77.9764 31.388C77.9764 30.7705 77.8867 30.2282 77.7073 29.7611C77.5279 29.2861 77.2326 28.918 76.8215 28.6568C76.4103 28.3876 75.8609 28.253 75.1732 28.253C74.5677 28.253 74.0183 28.4113 73.525 28.728C73.0391 29.0447 72.6504 29.4761 72.3589 30.0224C72.0748 30.5607 71.9328 31.1742 71.9328 31.863L70.89 31.3167C70.89 30.2955 71.118 29.3811 71.574 28.5736C72.03 27.7582 72.6392 27.113 73.4016 26.638C74.1716 26.163 75.0125 25.9255 75.9245 25.9255C76.8663 25.9255 77.6699 26.1195 78.3352 26.5074C79.0079 26.8874 79.5199 27.4336 79.8713 28.1461C80.2301 28.8507 80.4095 29.6938 80.4095 30.6755C80.4095 31.0396 80.4095 31.4434 80.4095 31.8867C80.4095 32.33 80.4095 32.7575 80.4095 33.1692V38.7385H77.9764ZM69.4997 38.7385V26.1274H71.9328V38.7385H69.4997Z" fill="white"/>
<path d="M83.5052 38.7385V26.1274H85.9047V38.7385H83.5052ZM84.7161 23.515C84.2975 23.515 83.935 23.3962 83.6285 23.1587C83.3295 22.9133 83.18 22.5768 83.18 22.1493C83.18 21.7298 83.3295 21.4012 83.6285 21.1637C83.935 20.9183 84.2975 20.7956 84.7161 20.7956C85.1273 20.7956 85.4823 20.9183 85.7813 21.1637C86.0878 21.4012 86.2411 21.7298 86.2411 22.1493C86.2411 22.5768 86.0878 22.9133 85.7813 23.1587C85.4823 23.3962 85.1273 23.515 84.7161 23.515Z" fill="white"/>
<path d="M89.065 38.7385V21.2231H91.4982V37.9547L90.3993 36.5535H97.9005V38.7385H89.065Z" fill="white"/>
<path d="M100.455 38.7385V26.1274H102.855V38.7385H100.455ZM101.666 23.515C101.248 23.515 100.885 23.3962 100.579 23.1587C100.28 22.9133 100.13 22.5768 100.13 22.1493C100.13 21.7298 100.28 21.4012 100.579 21.1637C100.885 20.9183 101.248 20.7956 101.666 20.7956C102.077 20.7956 102.433 20.9183 102.732 21.1637C103.038 21.4012 103.191 21.7298 103.191 22.1493C103.191 22.5768 103.038 22.9133 102.732 23.1587C102.433 23.3962 102.077 23.515 101.666 23.515Z" fill="white"/>
<path d="M107.563 38.7385V28.2649H104.995V26.1274H107.563V24.7499C107.563 24.1008 107.637 23.5189 107.787 23.0043C107.944 22.4898 108.161 22.0464 108.437 21.6744C108.714 21.2944 109.039 20.9817 109.413 20.7362C109.794 20.4908 110.209 20.3087 110.657 20.19C111.113 20.0633 111.588 20 112.081 20C112.485 20 112.799 20.0277 113.023 20.0831C113.255 20.1306 113.408 20.1742 113.483 20.2137V22.3631C113.393 22.3314 113.24 22.2958 113.023 22.2562C112.806 22.2166 112.575 22.1968 112.328 22.1968C111.85 22.1968 111.457 22.2721 111.151 22.4225C110.844 22.5729 110.605 22.7827 110.433 23.0518C110.261 23.3131 110.141 23.6179 110.074 23.9662C110.014 24.3066 109.985 24.6708 109.985 25.0587V26.1274H113.371V28.2649H109.985V38.7385H107.563Z" fill="white"/>
<path d="M115.717 33.3354V31.3286H124.485L124.149 31.9223C124.149 31.8748 124.149 31.8273 124.149 31.7798C124.149 31.7244 124.149 31.6769 124.149 31.6373C124.149 30.9961 124.018 30.4063 123.756 29.868C123.495 29.3217 123.102 28.8863 122.579 28.5618C122.063 28.2293 121.417 28.063 120.639 28.063C119.862 28.063 119.178 28.2411 118.587 28.5974C118.004 28.9457 117.548 29.4445 117.219 30.0936C116.898 30.7348 116.737 31.5067 116.737 32.4092C116.737 33.3275 116.894 34.1192 117.208 34.7842C117.522 35.4412 117.974 35.9479 118.565 36.3041C119.155 36.6604 119.862 36.8385 120.684 36.8385C121.26 36.8385 121.757 36.7791 122.175 36.6604C122.601 36.5337 122.949 36.3675 123.218 36.1616C123.495 35.9558 123.704 35.7342 123.846 35.4967C123.988 35.2512 124.07 35.0098 124.093 34.7723H126.515C126.47 35.2869 126.309 35.7975 126.032 36.3041C125.763 36.8029 125.378 37.2581 124.878 37.6698C124.384 38.0735 123.779 38.3981 123.061 38.6435C122.351 38.881 121.533 38.9997 120.606 38.9997C119.365 38.9997 118.277 38.7227 117.343 38.1685C116.408 37.6143 115.68 36.8464 115.156 35.8648C114.633 34.8752 114.371 33.7431 114.371 32.4686C114.371 31.1703 114.637 30.0303 115.168 29.0486C115.698 28.067 116.435 27.303 117.376 26.7568C118.318 26.2026 119.398 25.9255 120.617 25.9255C121.858 25.9255 122.93 26.2026 123.835 26.7568C124.747 27.3109 125.449 28.0749 125.943 29.0486C126.436 30.0224 126.683 31.1426 126.683 32.4092C126.683 32.5596 126.679 32.7338 126.672 32.9317C126.664 33.1296 126.653 33.2642 126.638 33.3354H115.717Z" fill="white"/>
<path d="M7.08282 39.0004V20.4004L18.0828 9.40039L29.0828 20.4004V39.0004H7.08282ZM9.33282 36.7504H16.6828V31.4004H19.4828V36.7504H26.7828V21.3504L18.0828 12.6504L9.33282 21.3504V36.7504ZM16.6828 25.4004V22.6004H19.4828V25.4004H16.6828ZM33.4328 39.0004V18.9504L23.9328 9.40039H27.4328L35.6828 17.7004V39.0004H33.4328ZM40.0328 39.0004V16.2004L33.2828 9.40039H36.7828L42.2828 14.9504V39.0004H40.0328ZM9.33282 36.7504H26.7828H9.33282Z" fill="white"/>
</svg>
